<svg width="770" height="132" xmlns="http://www.w3.org/2000/svg"><g fill="none" fill-rule="evenodd"><g><path d="M85 49.5h34.844V132H85V49.5zm0 0C85 22.162 106.938 0 134 0v35.2c-7.818 0-14.156 6.402-14.156 14.3H85zM49 49.5H14.156V132H49V49.5zm0 0C49 22.162 27.062 0 0 0v35.2c7.818 0 14.156 6.402 14.156 14.3H49z" fill="#17AD9F"/><circle fill="#566066" cx="67" cy="63" r="14"/></g><path d="M209.79 4.24c18.53 0 33.15 5.95 43.86 18.02 10.2 11.39 15.3 26.52 15.3 45.22s-5.1 33.66-15.3 45.05c-10.71 11.9-25.33 17.85-43.86 17.85-18.7 0-33.32-6.12-43.86-18.02-10.2-11.56-15.13-26.52-15.13-44.88 0-18.53 4.93-33.49 15.13-45.05 10.54-12.24 25.16-18.19 43.86-18.19zm0 17.51c-12.58 0-22.27 4.25-29.24 12.75-6.63 8.16-9.86 19.04-9.86 32.98 0 13.77 3.23 24.65 9.86 32.81 6.8 8.33 16.66 12.58 29.24 12.58 12.58 0 22.27-4.08 29.07-12.07 6.63-7.99 10.03-19.04 10.03-33.32 0-14.28-3.4-25.5-10.03-33.66-6.8-8.16-16.49-12.07-29.07-12.07zm77.86-15.13V128h85.34v-17h-65.62V6.62h-19.72zm100.64 0V128h85.34v-17h-65.62V6.62h-19.72zm154.53-2.38c18.53 0 33.15 5.95 43.86 18.02 10.2 11.39 15.3 26.52 15.3 45.22s-5.1 33.66-15.3 45.05c-10.71 11.9-25.33 17.85-43.86 17.85-18.7 0-33.32-6.12-43.86-18.02-10.2-11.56-15.13-26.52-15.13-44.88 0-18.53 4.93-33.49 15.13-45.05 10.54-12.24 25.16-18.19 43.86-18.19zm0 17.51c-12.58 0-22.27 4.25-29.24 12.75-6.63 8.16-9.86 19.04-9.86 32.98 0 13.77 3.23 24.65 9.86 32.81 6.8 8.33 16.66 12.58 29.24 12.58 12.58 0 22.27-4.08 29.07-12.07 6.63-7.99 10.03-19.04 10.03-33.32 0-14.28-3.4-25.5-10.03-33.66-6.8-8.16-16.49-12.07-29.07-12.07zm66.81-15.13L644.48 128h21.25l23.8-91.29h.68L713.84 128h21.08L769.94 6.62H747.5l-22.78 92.31h-.68L700.07 6.62H679.5l-23.97 92.31h-.68L632.07 6.62h-22.44z" fill="#566066"/></g></svg>